<?xml version="1.0"?>
<svg width="120" height="100" xmlns="http://www.w3.org/2000/svg" xmlns:svg="http://www.w3.org/2000/svg">
 <!-- Created with SVG-edit - http://svg-edit.googlecode.com/ -->
 <g>
  <title>Layer 1</title>
  <ellipse rx="1" id="svg_4" cy="212.947336" cx="232.874222" stroke-width="5" stroke="#000000" fill="#FF0000"/>
  <g id="svg_27">
   <polygon stroke="#000000" transform="rotate(-35.000553131103516 112.15214538574219,25.69733428955078) " stroke-width="0" points="116.95954895019531,25.697349548339844 113.28700256347656,32.27129364013672 107.34477233886719,29.760269165039062 107.34477233886719,21.634422302246094 113.28700256347656,19.12339210510254 116.95954895019531,25.697349548339844 " strokeWidth="0" strokecolor="#000000" fill="#7f003f" edge="40.353989" orient="x" sides="5" shape="regularPoly" id="svg_7" cy="279" cx="229"/>
   <polygon stroke="#000000" transform="rotate(-36.47064208984375 90.6359405517578,22.770301818847635) " stroke-width="0" points="108.85520935058594,22.770301818847656 94.93687438964844,41.288246154785156 72.41664123535156,34.215003967285156 72.41664123535156,11.325601577758789 94.93687438964844,4.252358436584473 108.85520935058594,22.770301818847656 " strokeWidth="0" strokecolor="#000000" fill="#007f00" edge="9.910712" orient="x" sides="5" shape="regularPoly" id="svg_9" cy="257" cx="246"/>
   <polygon stroke="#000000" transform="rotate(-73.84864044189453 49.74098205566408,45.14438629150392) " stroke-width="0" points="93.88233947753906,45.14440155029297 60.16133117675781,94.55660247802734 5.5996246337890625,75.68282318115234 5.5996246337890625,14.60594367980957 60.16133117675781,-4.267828464508057 93.88233947753906,45.14440155029297 " strokeWidth="0" strokecolor="#000000" fill="#7f00ff" edge="99.912431" orient="x" sides="5" shape="regularPoly" id="svg_21" cy="187.539276" cx="360.523542"/>
   <path stroke="#000000" id="svg_18" d="m17.562896,57.414454c-0.924423,0.036192 -2.277397,-0.513693 -1.332194,-1.740327c1.029065,-0.466992 -0.182902,-2.014805 0.848397,-2.743912c0.827798,-1.357003 1.952809,-2.596208 2.292319,-4.253354c-0.052726,-1.123876 -1.218004,-1.789 -0.662068,-3.03296c-0.545424,-1.990654 -0.419372,-4.28191 0.576258,-6.071351c0.845428,-1.662018 1.871875,-3.423057 1.763625,-5.434332c-1.060325,0.509748 -2.182694,0.956361 -3.349633,0.724865c-1.097098,-0.117302 -2.081021,0.905419 -3.200101,0.34933c-1.134387,-0.271327 -1.809135,-2.017507 -0.963331,-3.038256c0.9243,-0.908931 2.28233,-0.93818 3.163835,-1.952571c1.163053,-1.109153 2.238807,-2.609347 3.841782,-2.805435c0.708478,-0.186732 1.012352,-1.006331 1.404522,-1.620549c0.325905,0.974165 0.892738,1.835575 1.745864,2.267437c1.734836,1.156862 2.166684,3.602602 2.806442,5.61313c0.473031,1.574577 0.867123,3.218549 1.659236,4.62426c0.008426,0.674643 -0.880704,0.959801 -0.280165,1.750692c0.312332,2.145039 0.325774,4.341569 0.298089,6.511669c-0.526763,1.061983 -1.006584,2.24732 -0.303898,3.466084c0.469382,1.489676 1.63835,2.466695 2.213471,3.872425c0.325103,0.72789 -0.633795,1.784642 0.560919,1.601584c1.091052,0.664539 0.210062,2.286645 -0.875075,1.814746c-4.066595,0.119049 -8.14214,0.237926 -12.208293,0.096824l0,0z" stroke-linecap="null" stroke-linejoin="null" stroke-dasharray="null" stroke-width="0" fill="#000000"/>
   <text stroke="#000000" transform="matrix(0.6754564046859741,0,0,0.7547169923782349,101.5263644028455,41.94339430332184) " font-weight="normal" font-style="normal" xml:space="preserve" text-anchor="middle" font-family="serif" font-size="24" id="svg_26" y="20.842722" x="-67.960978" stroke-linecap="null" stroke-linejoin="null" stroke-dasharray="null" stroke-width="0" fill="#000000">ECAM</text>
  </g>
 </g>
</svg>